M48
; DRILL file {KiCad (6.0.4)} date Tue Jan 17 23:17:46 2023
; FORMAT={-:-/ absolute / metric / decimal}
; #@! TF.CreationDate,2023-01-17T23:17:46-05:00
; #@! TF.GenerationSoftware,Kicad,Pcbnew,(6.0.4)
; #@! TF.FileFunction,NonPlated,1,2,NPTH
FMAT,2
METRIC
; #@! TA.AperFunction,NonPlated,NPTH,ComponentDrill
T1C1.500
; #@! TA.AperFunction,NonPlated,NPTH,ComponentDrill
T2C1.800
; #@! TA.AperFunction,NonPlated,NPTH,ComponentDrill
T3C1.900
; #@! TA.AperFunction,NonPlated,NPTH,ComponentDrill
T4C3.200
%
G90
G05
T1
X149.975Y-57.135
X154.825Y-57.135
T2
X149.675Y-54.105
X155.125Y-54.105
T3
X50.834Y-87.63
X50.834Y-104.648
X59.851Y-70.612
X61.434Y-87.63
X61.434Y-104.648
X68.868Y-87.63
X68.868Y-104.648
X70.451Y-70.612
X79.468Y-87.63
X79.468Y-104.648
X86.902Y-87.63
X86.902Y-104.648
X95.919Y-70.612
X97.502Y-87.63
X97.502Y-104.648
X104.936Y-87.63
X104.936Y-104.648
X104.936Y-139.7
X106.519Y-70.612
X115.536Y-87.63
X115.536Y-104.648
X115.536Y-139.7
X122.97Y-139.7
X127.762Y-90.839
X127.762Y-101.439
X133.57Y-139.7
X171.23Y-139.7
X177.038Y-90.839
X177.038Y-101.439
X181.83Y-139.7
X189.264Y-87.63
X189.264Y-104.648
X189.264Y-139.7
X198.281Y-70.612
X199.864Y-87.63
X199.864Y-104.648
X199.864Y-139.7
X207.298Y-87.63
X207.298Y-104.648
X208.881Y-70.612
X217.898Y-87.63
X217.898Y-104.648
X225.332Y-87.63
X225.332Y-104.648
X234.349Y-70.612
X235.932Y-87.63
X235.932Y-104.648
X243.366Y-87.63
X243.366Y-104.648
X244.949Y-70.612
X253.966Y-87.63
X253.966Y-104.648
X261.4Y-87.63
X261.4Y-104.648
X272.0Y-87.63
X272.0Y-104.648
T4
X56.134Y-87.63
X56.134Y-104.648
X65.151Y-70.612
X74.168Y-87.63
X74.168Y-104.648
X92.202Y-87.63
X92.202Y-104.648
X101.219Y-70.612
X110.236Y-87.63
X110.236Y-104.648
X110.236Y-139.7
X127.762Y-96.139
X128.27Y-139.7
X176.53Y-139.7
X177.038Y-96.139
X194.564Y-87.63
X194.564Y-104.648
X194.564Y-139.7
X203.581Y-70.612
X212.598Y-87.63
X212.598Y-104.648
X230.632Y-87.63
X230.632Y-104.648
X239.649Y-70.612
X248.666Y-87.63
X248.666Y-104.648
X266.7Y-87.63
X266.7Y-104.648
T0
M30
