M48
; DRILL file {KiCad (6.0.4)} date Tue Jan 17 23:17:46 2023
; FORMAT={-:-/ absolute / metric / decimal}
; #@! TF.CreationDate,2023-01-17T23:17:46-05:00
; #@! TF.GenerationSoftware,Kicad,Pcbnew,(6.0.4)
; #@! TF.FileFunction,Plated,1,2,PTH
FMAT,2
METRIC
; #@! TA.AperFunction,Plated,PTH,ComponentDrill
T1C1.020
; #@! TA.AperFunction,Plated,PTH,ComponentDrill
T2C1.100
; #@! TA.AperFunction,Plated,PTH,ComponentDrill
T3C1.200
; #@! TA.AperFunction,Plated,PTH,ComponentDrill
T4C3.175
%
G90
G05
T1
X143.51Y-53.975
X143.51Y-56.515
X143.51Y-59.055
X143.51Y-61.595
X143.51Y-64.135
X143.51Y-66.675
X143.51Y-69.215
X143.51Y-71.755
X143.51Y-74.295
X143.51Y-76.835
X143.51Y-79.375
X143.51Y-81.915
X143.51Y-84.455
X143.51Y-86.995
X143.51Y-89.535
X143.51Y-92.075
X143.51Y-94.615
X143.51Y-97.155
X143.51Y-99.695
X143.51Y-102.235
X149.86Y-102.005
X152.4Y-102.005
X154.94Y-102.005
X161.29Y-53.975
X161.29Y-56.515
X161.29Y-59.055
X161.29Y-61.595
X161.29Y-64.135
X161.29Y-66.675
X161.29Y-69.215
X161.29Y-71.755
X161.29Y-74.295
X161.29Y-76.835
X161.29Y-79.375
X161.29Y-81.915
X161.29Y-84.455
X161.29Y-86.995
X161.29Y-89.535
X161.29Y-92.075
X161.29Y-94.615
X161.29Y-97.155
X161.29Y-99.695
X161.29Y-102.235
T2
X149.15Y-106.97
X149.15Y-111.47
X155.65Y-106.97
X155.65Y-111.47
T3
X51.134Y-91.43
X51.134Y-108.448
X56.134Y-93.53
X56.134Y-110.548
X60.151Y-74.412
X65.151Y-76.512
X69.168Y-91.43
X69.168Y-108.448
X74.168Y-93.53
X74.168Y-110.548
X87.202Y-91.43
X87.202Y-108.448
X92.202Y-93.53
X92.202Y-110.548
X96.219Y-74.412
X101.219Y-76.512
X105.236Y-91.43
X105.236Y-108.448
X105.236Y-143.5
X110.236Y-93.53
X110.236Y-110.548
X110.236Y-145.6
X121.862Y-96.139
X123.27Y-143.5
X123.962Y-91.139
X128.27Y-145.6
X171.53Y-143.5
X176.53Y-145.6
X180.838Y-101.139
X182.938Y-96.139
X189.564Y-91.43
X189.564Y-108.448
X189.564Y-143.5
X194.564Y-93.53
X194.564Y-110.548
X194.564Y-145.6
X198.581Y-74.412
X203.581Y-76.512
X207.598Y-91.43
X207.598Y-108.448
X212.598Y-93.53
X212.598Y-110.548
X225.632Y-91.43
X225.632Y-108.448
X230.632Y-93.53
X230.632Y-110.548
X234.649Y-74.412
X239.649Y-76.512
X243.666Y-91.43
X243.666Y-108.448
X248.666Y-93.53
X248.666Y-110.548
X261.7Y-91.43
X261.7Y-108.448
X266.7Y-93.53
X266.7Y-110.548
T4
X40.64Y-57.15
X40.64Y-146.05
X83.82Y-146.05
X127.0Y-57.15
X152.4Y-146.05
X177.8Y-57.15
X220.98Y-146.05
X264.16Y-57.15
X264.16Y-146.05
T0
M30
